<mxfile host="app.diagrams.net" modified="2022-03-02T18:43:56.192Z" agent="5.0 (X11; Linux x86_64) AppleWebKit/537.36 (KHTML, like Gecko) Chrome/98.0.4758.102 Safari/537.36" etag="bh4VFReJ8fpJZl46fVLx" version="16.6.2" type="github">
  <diagram id="lEomsulzjQqd4y4XRoKr" name="Page-1">
    <mxGraphModel dx="2177" dy="1942" grid="1" gridSize="10" guides="1" tooltips="1" connect="1" arrows="1" fold="1" page="1" pageScale="1" pageWidth="827" pageHeight="1169" math="1" shadow="0">
      <root>
        <mxCell id="0" />
        <mxCell id="1" parent="0" />
        <mxCell id="RbKdhTW8WzwiZSsMyj8v-1" value="ST-Conv Block" style="rounded=0;whiteSpace=wrap;html=1;" vertex="1" parent="1">
          <mxGeometry x="320" y="120" width="160" height="80" as="geometry" />
        </mxCell>
        <mxCell id="RbKdhTW8WzwiZSsMyj8v-2" value="ST-Conv Block" style="rounded=0;whiteSpace=wrap;html=1;" vertex="1" parent="1">
          <mxGeometry x="320" y="320" width="160" height="80" as="geometry" />
        </mxCell>
        <mxCell id="RbKdhTW8WzwiZSsMyj8v-3" value="Output Layer" style="rounded=0;whiteSpace=wrap;html=1;" vertex="1" parent="1">
          <mxGeometry x="320" y="520" width="160" height="80" as="geometry" />
        </mxCell>
        <mxCell id="RbKdhTW8WzwiZSsMyj8v-4" value="" style="endArrow=none;html=1;rounded=0;exitX=0.5;exitY=0;exitDx=0;exitDy=0;" edge="1" parent="1" source="RbKdhTW8WzwiZSsMyj8v-1">
          <mxGeometry width="50" height="50" relative="1" as="geometry">
            <mxPoint x="470" y="90" as="sourcePoint" />
            <mxPoint x="400" y="40" as="targetPoint" />
          </mxGeometry>
        </mxCell>
        <mxCell id="RbKdhTW8WzwiZSsMyj8v-5" value="" style="endArrow=none;html=1;rounded=0;entryX=0.5;entryY=1;entryDx=0;entryDy=0;exitX=0.5;exitY=0;exitDx=0;exitDy=0;" edge="1" parent="1" source="RbKdhTW8WzwiZSsMyj8v-2" target="RbKdhTW8WzwiZSsMyj8v-1">
          <mxGeometry width="50" height="50" relative="1" as="geometry">
            <mxPoint x="390" y="420" as="sourcePoint" />
            <mxPoint x="440" y="370" as="targetPoint" />
          </mxGeometry>
        </mxCell>
        <mxCell id="RbKdhTW8WzwiZSsMyj8v-6" value="" style="endArrow=none;html=1;rounded=0;exitX=0.5;exitY=0;exitDx=0;exitDy=0;entryX=0.5;entryY=1;entryDx=0;entryDy=0;" edge="1" parent="1" source="RbKdhTW8WzwiZSsMyj8v-3" target="RbKdhTW8WzwiZSsMyj8v-2">
          <mxGeometry width="50" height="50" relative="1" as="geometry">
            <mxPoint x="390" y="420" as="sourcePoint" />
            <mxPoint x="440" y="370" as="targetPoint" />
          </mxGeometry>
        </mxCell>
        <mxCell id="RbKdhTW8WzwiZSsMyj8v-7" value="" style="endArrow=classic;html=1;rounded=0;exitX=0.5;exitY=1;exitDx=0;exitDy=0;" edge="1" parent="1" source="RbKdhTW8WzwiZSsMyj8v-3">
          <mxGeometry width="50" height="50" relative="1" as="geometry">
            <mxPoint x="390" y="350" as="sourcePoint" />
            <mxPoint x="400" y="680" as="targetPoint" />
          </mxGeometry>
        </mxCell>
        <mxCell id="RbKdhTW8WzwiZSsMyj8v-10" value="&lt;font style=&quot;font-size: 14px&quot;&gt;$$\widehat{V}$$&lt;/font&gt;" style="text;html=1;strokeColor=none;fillColor=none;align=center;verticalAlign=middle;whiteSpace=wrap;rounded=0;" vertex="1" parent="1">
          <mxGeometry x="370" y="680" width="60" height="30" as="geometry" />
        </mxCell>
        <mxCell id="RbKdhTW8WzwiZSsMyj8v-11" value="$$V_{t-M+1},...,V_t$$" style="text;html=1;strokeColor=none;fillColor=none;align=center;verticalAlign=middle;whiteSpace=wrap;rounded=0;fontSize=14;" vertex="1" parent="1">
          <mxGeometry x="370" y="10" width="60" height="30" as="geometry" />
        </mxCell>
        <mxCell id="RbKdhTW8WzwiZSsMyj8v-12" value="" style="endArrow=classic;html=1;rounded=0;fontSize=14;entryX=1;entryY=0.5;entryDx=0;entryDy=0;" edge="1" parent="1" target="RbKdhTW8WzwiZSsMyj8v-2">
          <mxGeometry width="50" height="50" relative="1" as="geometry">
            <mxPoint x="600" y="40" as="sourcePoint" />
            <mxPoint x="440" y="330" as="targetPoint" />
            <Array as="points">
              <mxPoint x="600" y="360" />
            </Array>
          </mxGeometry>
        </mxCell>
        <mxCell id="RbKdhTW8WzwiZSsMyj8v-13" value="" style="endArrow=classic;html=1;rounded=0;fontSize=14;entryX=1;entryY=0.5;entryDx=0;entryDy=0;" edge="1" parent="1" target="RbKdhTW8WzwiZSsMyj8v-1">
          <mxGeometry width="50" height="50" relative="1" as="geometry">
            <mxPoint x="600" y="160" as="sourcePoint" />
            <mxPoint x="440" y="330" as="targetPoint" />
          </mxGeometry>
        </mxCell>
        <mxCell id="RbKdhTW8WzwiZSsMyj8v-14" value="$$W$$" style="text;html=1;strokeColor=none;fillColor=none;align=center;verticalAlign=middle;whiteSpace=wrap;rounded=0;fontSize=14;" vertex="1" parent="1">
          <mxGeometry x="570" y="10" width="60" height="30" as="geometry" />
        </mxCell>
        <mxCell id="RbKdhTW8WzwiZSsMyj8v-17" value="" style="endArrow=none;dashed=1;html=1;dashPattern=1 3;strokeWidth=2;rounded=0;fontSize=14;exitX=0;exitY=0.5;exitDx=0;exitDy=0;" edge="1" parent="1" source="RbKdhTW8WzwiZSsMyj8v-1">
          <mxGeometry width="50" height="50" relative="1" as="geometry">
            <mxPoint x="240" y="370" as="sourcePoint" />
            <mxPoint x="200" y="160" as="targetPoint" />
          </mxGeometry>
        </mxCell>
        <mxCell id="RbKdhTW8WzwiZSsMyj8v-18" value="" style="endArrow=classic;html=1;rounded=0;fontSize=14;" edge="1" parent="1">
          <mxGeometry width="50" height="50" relative="1" as="geometry">
            <mxPoint x="210" y="160" as="sourcePoint" />
            <mxPoint x="200" y="160" as="targetPoint" />
          </mxGeometry>
        </mxCell>
        <mxCell id="RbKdhTW8WzwiZSsMyj8v-19" value="" style="rounded=0;whiteSpace=wrap;html=1;fontSize=14;direction=south;" vertex="1" parent="1">
          <mxGeometry x="-80" width="280" height="320" as="geometry" />
        </mxCell>
        <mxCell id="RbKdhTW8WzwiZSsMyj8v-20" value="Temporal Gated-Conv" style="rounded=0;whiteSpace=wrap;html=1;fontSize=14;" vertex="1" parent="1">
          <mxGeometry x="-20" y="20" width="160" height="60" as="geometry" />
        </mxCell>
        <mxCell id="RbKdhTW8WzwiZSsMyj8v-21" value="Spatial Graph-Conv" style="rounded=0;whiteSpace=wrap;html=1;fontSize=14;" vertex="1" parent="1">
          <mxGeometry x="-20" y="130" width="160" height="60" as="geometry" />
        </mxCell>
        <mxCell id="RbKdhTW8WzwiZSsMyj8v-22" value="Temporal Gated-Conv" style="rounded=0;whiteSpace=wrap;html=1;fontSize=14;" vertex="1" parent="1">
          <mxGeometry x="-20" y="230" width="160" height="60" as="geometry" />
        </mxCell>
        <mxCell id="RbKdhTW8WzwiZSsMyj8v-23" value="" style="endArrow=none;html=1;rounded=0;exitX=0.5;exitY=0;exitDx=0;exitDy=0;" edge="1" parent="1">
          <mxGeometry width="50" height="50" relative="1" as="geometry">
            <mxPoint x="59.5" y="20" as="sourcePoint" />
            <mxPoint x="60" y="-40" as="targetPoint" />
          </mxGeometry>
        </mxCell>
        <mxCell id="RbKdhTW8WzwiZSsMyj8v-24" value="" style="endArrow=none;html=1;rounded=0;exitX=0.5;exitY=0;exitDx=0;exitDy=0;" edge="1" parent="1">
          <mxGeometry width="50" height="50" relative="1" as="geometry">
            <mxPoint x="59.5" y="130" as="sourcePoint" />
            <mxPoint x="60" y="80" as="targetPoint" />
          </mxGeometry>
        </mxCell>
        <mxCell id="RbKdhTW8WzwiZSsMyj8v-25" value="" style="endArrow=none;html=1;rounded=0;" edge="1" parent="1">
          <mxGeometry width="50" height="50" relative="1" as="geometry">
            <mxPoint x="60" y="230" as="sourcePoint" />
            <mxPoint x="60" y="190" as="targetPoint" />
          </mxGeometry>
        </mxCell>
        <mxCell id="RbKdhTW8WzwiZSsMyj8v-26" value="" style="endArrow=classic;html=1;rounded=0;fontSize=14;exitX=0.5;exitY=1;exitDx=0;exitDy=0;" edge="1" parent="1" source="RbKdhTW8WzwiZSsMyj8v-22">
          <mxGeometry width="50" height="50" relative="1" as="geometry">
            <mxPoint x="400" y="200" as="sourcePoint" />
            <mxPoint x="60" y="370" as="targetPoint" />
          </mxGeometry>
        </mxCell>
        <mxCell id="RbKdhTW8WzwiZSsMyj8v-27" value="$$V^l$$" style="text;html=1;strokeColor=none;fillColor=none;align=center;verticalAlign=middle;whiteSpace=wrap;rounded=0;fontSize=14;" vertex="1" parent="1">
          <mxGeometry x="30" y="-70" width="60" height="30" as="geometry" />
        </mxCell>
        <mxCell id="RbKdhTW8WzwiZSsMyj8v-28" value="$$V^{l+1}$$" style="text;html=1;strokeColor=none;fillColor=none;align=center;verticalAlign=middle;whiteSpace=wrap;rounded=0;fontSize=14;" vertex="1" parent="1">
          <mxGeometry x="30" y="370" width="60" height="30" as="geometry" />
        </mxCell>
        <mxCell id="RbKdhTW8WzwiZSsMyj8v-29" value="$$W$$" style="text;html=1;strokeColor=none;fillColor=none;align=center;verticalAlign=middle;whiteSpace=wrap;rounded=0;fontSize=14;" vertex="1" parent="1">
          <mxGeometry x="150" y="-70" width="60" height="30" as="geometry" />
        </mxCell>
        <mxCell id="RbKdhTW8WzwiZSsMyj8v-30" value="" style="endArrow=classic;html=1;rounded=0;fontSize=14;exitX=0.5;exitY=1;exitDx=0;exitDy=0;entryX=1;entryY=0.5;entryDx=0;entryDy=0;" edge="1" parent="1" source="RbKdhTW8WzwiZSsMyj8v-29" target="RbKdhTW8WzwiZSsMyj8v-21">
          <mxGeometry width="50" height="50" relative="1" as="geometry">
            <mxPoint x="400" y="200" as="sourcePoint" />
            <mxPoint x="450" y="150" as="targetPoint" />
            <Array as="points">
              <mxPoint x="180" y="160" />
            </Array>
          </mxGeometry>
        </mxCell>
        <mxCell id="RbKdhTW8WzwiZSsMyj8v-32" value="" style="endArrow=none;dashed=1;html=1;dashPattern=1 3;strokeWidth=2;rounded=0;fontSize=14;entryX=0;entryY=0.5;entryDx=0;entryDy=0;" edge="1" parent="1">
          <mxGeometry width="50" height="50" relative="1" as="geometry">
            <mxPoint x="-130" y="264" as="sourcePoint" />
            <mxPoint x="-20" y="264" as="targetPoint" />
          </mxGeometry>
        </mxCell>
        <mxCell id="RbKdhTW8WzwiZSsMyj8v-34" value="" style="endArrow=classic;html=1;rounded=0;fontSize=14;" edge="1" parent="1">
          <mxGeometry width="50" height="50" relative="1" as="geometry">
            <mxPoint x="-130" y="264" as="sourcePoint" />
            <mxPoint x="-140" y="264" as="targetPoint" />
          </mxGeometry>
        </mxCell>
        <mxCell id="RbKdhTW8WzwiZSsMyj8v-35" value="" style="whiteSpace=wrap;html=1;aspect=fixed;fontSize=14;" vertex="1" parent="1">
          <mxGeometry x="-440" y="124" width="300" height="300" as="geometry" />
        </mxCell>
        <mxCell id="RbKdhTW8WzwiZSsMyj8v-36" value="GLU" style="rounded=0;whiteSpace=wrap;html=1;fontSize=14;" vertex="1" parent="1">
          <mxGeometry x="-401" y="344" width="80" height="40" as="geometry" />
        </mxCell>
        <mxCell id="RbKdhTW8WzwiZSsMyj8v-37" value="1-D&lt;br&gt;Conv" style="rounded=0;whiteSpace=wrap;html=1;fontSize=14;direction=south;" vertex="1" parent="1">
          <mxGeometry x="-300" y="184" width="70" height="85" as="geometry" />
        </mxCell>
        <mxCell id="RbKdhTW8WzwiZSsMyj8v-38" value="" style="endArrow=classic;html=1;rounded=0;fontSize=14;exitX=0.5;exitY=1;exitDx=0;exitDy=0;" edge="1" parent="1" source="RbKdhTW8WzwiZSsMyj8v-36">
          <mxGeometry width="50" height="50" relative="1" as="geometry">
            <mxPoint x="-301" y="394" as="sourcePoint" />
            <mxPoint x="-361" y="474" as="targetPoint" />
          </mxGeometry>
        </mxCell>
        <mxCell id="RbKdhTW8WzwiZSsMyj8v-39" value="" style="endArrow=none;html=1;rounded=0;fontSize=14;exitX=0.5;exitY=0;exitDx=0;exitDy=0;" edge="1" parent="1" source="RbKdhTW8WzwiZSsMyj8v-36">
          <mxGeometry width="50" height="50" relative="1" as="geometry">
            <mxPoint x="-301" y="394" as="sourcePoint" />
            <mxPoint x="-361" y="64" as="targetPoint" />
          </mxGeometry>
        </mxCell>
        <mxCell id="RbKdhTW8WzwiZSsMyj8v-40" value="" style="endArrow=none;html=1;rounded=0;fontSize=14;exitX=0.5;exitY=1;exitDx=0;exitDy=0;" edge="1" parent="1" source="RbKdhTW8WzwiZSsMyj8v-37">
          <mxGeometry width="50" height="50" relative="1" as="geometry">
            <mxPoint x="-270" y="394" as="sourcePoint" />
            <mxPoint x="-360" y="227" as="targetPoint" />
          </mxGeometry>
        </mxCell>
        <mxCell id="RbKdhTW8WzwiZSsMyj8v-42" value="" style="endArrow=classic;html=1;rounded=0;fontSize=14;exitX=0.5;exitY=0;exitDx=0;exitDy=0;entryX=1;entryY=0.5;entryDx=0;entryDy=0;" edge="1" parent="1" source="RbKdhTW8WzwiZSsMyj8v-37" target="RbKdhTW8WzwiZSsMyj8v-36">
          <mxGeometry width="50" height="50" relative="1" as="geometry">
            <mxPoint x="-270" y="394" as="sourcePoint" />
            <mxPoint x="-220" y="344" as="targetPoint" />
            <Array as="points">
              <mxPoint x="-180" y="227" />
              <mxPoint x="-180" y="364" />
            </Array>
          </mxGeometry>
        </mxCell>
        <mxCell id="RbKdhTW8WzwiZSsMyj8v-43" value="" style="endArrow=none;html=1;rounded=0;fontSize=14;" edge="1" parent="1">
          <mxGeometry width="50" height="50" relative="1" as="geometry">
            <mxPoint x="-230" y="254" as="sourcePoint" />
            <mxPoint x="-180" y="254" as="targetPoint" />
          </mxGeometry>
        </mxCell>
        <mxCell id="RbKdhTW8WzwiZSsMyj8v-44" value="Q" style="text;html=1;strokeColor=none;fillColor=none;align=center;verticalAlign=middle;whiteSpace=wrap;rounded=0;fontSize=14;" vertex="1" parent="1">
          <mxGeometry x="-230" y="194" width="60" height="30" as="geometry" />
        </mxCell>
        <mxCell id="RbKdhTW8WzwiZSsMyj8v-45" value="P" style="text;html=1;strokeColor=none;fillColor=none;align=center;verticalAlign=middle;whiteSpace=wrap;rounded=0;fontSize=14;" vertex="1" parent="1">
          <mxGeometry x="-230" y="254" width="60" height="30" as="geometry" />
        </mxCell>
        <mxCell id="RbKdhTW8WzwiZSsMyj8v-46" value="$$V_{t-M+1}^l,...,V_t^l$$" style="text;html=1;strokeColor=none;fillColor=none;align=center;verticalAlign=middle;whiteSpace=wrap;rounded=0;fontSize=14;" vertex="1" parent="1">
          <mxGeometry x="-391" y="34" width="60" height="30" as="geometry" />
        </mxCell>
        <mxCell id="RbKdhTW8WzwiZSsMyj8v-47" value="$$V_{t-M+k_t}^l,...,V_t^l$$" style="text;html=1;strokeColor=none;fillColor=none;align=center;verticalAlign=middle;whiteSpace=wrap;rounded=0;fontSize=14;" vertex="1" parent="1">
          <mxGeometry x="-391" y="474" width="60" height="30" as="geometry" />
        </mxCell>
      </root>
    </mxGraphModel>
  </diagram>
</mxfile>
